Coordinates
version=1
nRows=14
nColumns=24
inDegrees=yes

Units are S.I. units (second, meters, Newtons, ...)
Angles are in degrees.

endheader
time	pelvis_tilt	pelvis_list	pelvis_rotation	pelvis_tx	pelvis_ty	pelvis_tz	hip_flexion_r	hip_adduction_r	hip_rotation_r	knee_angle_r	ankle_angle_r	subtalar_angle_r	mtp_angle_r	hip_flexion_l	hip_adduction_l	hip_rotation_l	knee_angle_l	ankle_angle_l	subtalar_angle_l	mtp_angle_l	lumbar_extension	lumbar_bending	lumbar_rotation
      0.64600000	     -1.08197987	      7.32226368	      0.52321141	     -0.78665521	      1.04803234	      0.28005484	     24.84876601	     -3.79825601	    -13.01013192	      2.23892044	      3.00238506	     -0.64901392	     -0.12128489	    -19.03424897	     11.90099361	     -2.60362524	     -0.42014713	      5.84776718	      3.80103538	     -0.02854742	      4.76767623	     -5.14646143	     -2.23473104
      0.65016667	     -1.06634574	      7.30492018	      0.59871475	     -0.78069600	      1.04784483	      0.28006954	     24.76408125	     -3.73793783	    -12.89034081	      1.91104330	      3.05077389	     -0.65000110	     -0.12404708	    -19.20139911	     11.82820448	     -2.54238656	     -0.79036923	      5.78708246	      3.77785481	     -0.04096344	      4.81152429	     -5.08668138	     -2.27993818
      0.65433333	     -0.96563363	      7.20761318	      0.61535379	     -0.77452403	      1.04775481	      0.28013409	     24.54595073	     -3.57462738	    -12.55961926	      1.59465031	      3.37161276	     -0.81091342	     -0.13615489	    -19.50454202	     11.68251411	     -2.43236737	     -1.05746052	      5.51125817	      3.71135706	     -0.08850299	      4.73464718	     -4.93974127	     -2.47802266
      0.65850000	     -0.94881427	      7.19040918	      0.69449335	     -0.76850466	      1.04756971	      0.28011614	     24.46208801	     -3.52205368	    -12.39421312	      1.18770993	      3.35167095	     -0.85343924	     -0.13903083	    -19.66240309	     11.60941430	     -2.40366644	     -1.44075016	      5.43886967	      3.68815448	     -0.09692920	      4.77419518	     -4.89141044	     -2.51132862
      0.66266667	     -0.75424621	      7.09655245	      0.62588370	     -0.76237381	      1.04758053	      0.28035404	     24.13398293	     -3.32337358	    -11.70495805	      0.86247008	      3.45207403	     -1.61308970	     -0.16994770	    -20.02456634	     11.48450891	     -2.48915757	     -1.74757408	      5.00604132	      3.51819387	     -0.15952642	      4.55307375	     -4.79929113	     -2.78869229
      0.66683333	     -0.75014744	      7.05732079	      0.73542997	     -0.75619278	      1.04744549	      0.28028705	     24.02908532	     -3.26317665	    -11.47207514	      0.44940411	      3.39339790	     -1.63978805	     -0.17219849	    -20.15827554	     11.37464852	     -2.39717274	     -2.17107391	      4.93907485	      3.53723119	     -0.16334041	      4.62546811	     -4.72083518	     -2.80687024
      0.67100000	     -0.59687486	      6.94271653	      0.71489707	     -0.74992656	      1.04746732	      0.28059715	     23.68562179	     -3.04688790	    -10.56082931	      0.19408644	      3.18504982	     -2.75719773	     -0.21055198	    -20.45155268	     11.19560636	     -2.49858740	     -2.54137062	      4.56056842	      3.54075234	     -0.19012812	      4.45659688	     -4.60492549	     -2.99957997
      0.67516667	     -0.58555821	      6.90327401	      0.79955544	     -0.74369209	      1.04735672	      0.28054593	     23.57828488	     -2.98248527	    -10.33350760	     -0.25908886	      3.12083544	     -2.77821753	     -0.21181368	    -20.57122924	     11.09196444	     -2.42047432	     -2.99148563	      4.46588052	      3.56949982	     -0.18991035	      4.54858289	     -4.51125540	     -3.01480897
      0.67933333	     -0.47380505	      6.77917625	      0.71385547	     -0.73726746	      1.04731176	      0.28087424	     23.30434621	     -2.74304749	     -9.54715275	     -0.57464328	      2.82864701	     -3.63671275	     -0.22952458	    -20.80560276	     10.93227207	     -2.60210595	     -3.37107904	      3.89692731	      3.65595831	     -0.17231423	      4.53780148	     -4.31243594	     -3.15635576
      0.68350000	     -0.48039921	      6.71536889	      0.86903830	     -0.73093597	      1.04727980	      0.28080733	     23.16729492	     -2.67680542	     -9.28217684	     -0.96544890	      2.73292162	     -3.65791686	     -0.22955561	    -20.86822709	     10.76572056	     -2.54930410	     -3.90723459	      3.82136425	      3.66195823	     -0.16709043	      4.58708374	     -4.24255737	     -3.16501240
      0.68766667	     -0.37346496	      6.55531135	      0.83055284	     -0.72442263	      1.04732382	      0.28126009	     22.84292878	     -2.40287849	     -8.38974251	     -1.17402616	      2.09668846	     -4.89781088	     -0.23926239	    -21.04964741	     10.52713764	     -2.84305273	     -4.38306150	      3.28707375	      3.83044860	     -0.07798099	      4.50786658	     -4.09377864	     -3.30900938
      0.69183333	     -0.35732550	      6.50643008	      0.93521552	     -0.71812892	      1.04733344	      0.28122817	     22.70176598	     -2.34491586	     -8.14239429	     -1.59121383	      1.98418529	     -4.89931986	     -0.23769235	    -21.10601380	     10.39114408	     -2.77176417	     -4.95429686	      3.17838367	      3.86054129	     -0.06815610	      4.58894799	     -3.99001987	     -3.32154053
      0.69600000	     -0.28894701	      6.32187910	      0.91938881	     -0.71149504	      1.04739983	      0.28165288	     22.41749683	     -2.06272127	     -7.43699871	     -1.79813621	      1.22490373	     -5.90980269	     -0.22681461	    -21.20714998	     10.11426995	     -3.13286076	     -5.49584078	      2.55195129	      4.10908859	      0.07854245	      4.59232940	     -3.81374084	     -3.44411704
      0.70016667	     -0.29108187	      6.21515612	      1.01133416	     -0.70504304	      1.04745213	      0.28170913	     22.24765689	     -1.94024865	     -7.02306476	     -2.10920536	      0.88637046	     -6.01584735	     -0.21829852	    -21.21991242	      9.90670096	     -3.07023814	     -6.09599084	      2.25384509	      4.24381572	      0.13251181	      4.61879943	     -3.60713233	     -3.49059406
